<svg width="168" height="168" viewBox="0 0 168 168" fill="none" xmlns="http://www.w3.org/2000/svg">
<circle cx="84" cy="84" r="83.5" stroke="white" stroke-opacity="0.2"/>
<path d="M16.448 129V39.4H53.312C58.944 39.4 63.8933 40.552 68.16 42.856C72.512 45.0747 75.8827 48.232 78.272 52.328C80.7467 56.424 81.984 61.288 81.984 66.92V68.712C81.984 74.2587 80.704 79.1227 78.144 83.304C75.6693 87.4 72.256 90.6 67.904 92.904C63.6373 95.1227 58.7733 96.232 53.312 96.232H33.344V129H16.448ZM33.344 80.872H51.648C55.6587 80.872 58.9013 79.7627 61.376 77.544C63.8507 75.3253 65.088 72.296 65.088 68.456V67.176C65.088 63.336 63.8507 60.3067 61.376 58.088C58.9013 55.8693 55.6587 54.76 51.648 54.76H33.344V80.872ZM82.303 129V39.4H99.199V76.392H132.479V39.4H149.375V129H132.479V91.752H99.199V129H82.303Z" fill="white"/>
</svg>
